<?xml version="1.0" encoding="utf-8"?>
<!-- Generator: Adobe Illustrator 24.1.3, SVG Export Plug-In . SVG Version: 6.00 Build 0)  -->
<svg version="1.1" id="Layer_1" xmlns="http://www.w3.org/2000/svg" xmlns:xlink="http://www.w3.org/1999/xlink" x="0px" y="0px"
	 viewBox="0 0 310 340.6" style="enable-background:new 0 0 310 340.6;" xml:space="preserve">
<style type="text/css">
	.st0{fill:#033F72;}
	.st1{fill:#033F72;stroke:#FFFFFF;stroke-width:11;stroke-miterlimit:10;}
</style>
<g>
	<path class="st0" d="M256.3,35.5v11.2c0,3.8-6.6,6.8-14.7,6.8c-8.1,0-14.7-3.1-14.7-6.8V35.5H83.5v11.2c0,3.8-6.6,6.8-14.7,6.8
		s-14.7-3.1-14.7-6.8V35.5c-24.8,0-45,20.2-45,45v202c0,24.9,20.2,45,45,45h202c24.9,0,45-20.1,45-45v-202
		C301.2,55.7,281.1,35.5,256.3,35.5z"/>
	<path class="st1" d="M241.6,48.6c5.3,0,9.7-2,9.7-4.5V17.5c0-2.5-4.3-4.5-9.7-4.5c-5.3,0-9.7,2-9.7,4.5v26.7
		C232,46.6,236.3,48.6,241.6,48.6z"/>
	<path class="st1" d="M68.9,48.6c5.3,0,9.7-2,9.7-4.5V17.5c0-2.5-4.3-4.5-9.7-4.5c-5.3,0-9.7,2-9.7,4.5v26.7
		C59.2,46.6,63.5,48.6,68.9,48.6z"/>
</g>
</svg>
