<svg xmlns="http://www.w3.org/2000/svg" width="14.476" height="14.724" viewBox="0 0 14.476 14.724">
  <g id="Group_6" data-name="Group 6" transform="translate(-19.578 -73.303)">
    <g id="Path_145" data-name="Path 145" transform="translate(32.011 85.736) rotate(180)" fill="none">
      <path d="M6.217,0A6.217,6.217,0,1,1,0,6.217,6.217,6.217,0,0,1,6.217,0Z" stroke="none"/>
      <path d="M 6.216532707214355 1.000002861022949 C 3.340132713317871 1.000002861022949 1.000002861022949 3.340132713317871 1.000002861022949 6.216532707214355 C 1.000002861022949 9.09293270111084 3.340132713317871 11.43306255340576 6.216532707214355 11.43306255340576 C 9.09293270111084 11.43306255340576 11.43306255340576 9.09293270111084 11.43306255340576 6.216532707214355 C 11.43306255340576 3.340132713317871 9.09293270111084 1.000002861022949 6.216532707214355 1.000002861022949 M 6.216532707214355 2.86102294921875e-06 C 9.649832725524902 2.86102294921875e-06 12.43306255340576 2.783232688903809 12.43306255340576 6.216532707214355 C 12.43306255340576 9.649832725524902 9.649832725524902 12.43306255340576 6.216532707214355 12.43306255340576 C 2.783232688903809 12.43306255340576 2.86102294921875e-06 9.649832725524902 2.86102294921875e-06 6.216532707214355 C 2.86102294921875e-06 2.783232688903809 2.783232688903809 2.86102294921875e-06 6.216532707214355 2.86102294921875e-06 Z" stroke="none" fill="#090808"/>
    </g>
    <line id="Line_2" data-name="Line 2" y2="5.938" transform="translate(29.501 83.474) rotate(-45)" fill="none" stroke="#000" stroke-width="1"/>
  </g>
</svg>
