<?xml version="1.0" encoding="utf-8"?>
<!-- Generator: Adobe Illustrator 25.1.0, SVG Export Plug-In . SVG Version: 6.00 Build 0)  -->
<svg version="1.1" id="Layer_1" xmlns="http://www.w3.org/2000/svg" xmlns:xlink="http://www.w3.org/1999/xlink" x="0px" y="0px"
	 viewBox="0 0 14.5 14.7" style="enable-background:new 0 0 14.5 14.7;" xml:space="preserve">
<style type="text/css">
	.st0{fill:none;}
	.st1{fill:#033F72;}
	.st2{fill:none;stroke:#033F72;}
</style>
<g id="Group_6" transform="translate(-19.578 -73.303)">
	<g id="Path_145" transform="translate(32.011 85.736) rotate(180)">
		<path class="st0" d="M6.2,0c3.4,0,6.2,2.8,6.2,6.2s-2.8,6.2-6.2,6.2S0,9.7,0,6.2C0,2.8,2.8,0,6.2,0C6.2,0,6.2,0,6.2,0z"/>
		<path class="st1" d="M6.2,1C3.3,1,1,3.3,1,6.2s2.3,5.2,5.2,5.2s5.2-2.3,5.2-5.2S9.1,1,6.2,1 M6.2,0c3.4,0,6.2,2.8,6.2,6.2
			s-2.8,6.2-6.2,6.2S0,9.6,0,6.2S2.8,0,6.2,0z"/>
	</g>
	<line id="Line_2" class="st2" x1="29.5" y1="83.5" x2="33.7" y2="87.7"/>
</g>
</svg>
