<svg xmlns="http://www.w3.org/2000/svg" width="13" height="10" viewBox="0 0 13 10">
  <g id="Group_207" data-name="Group 207" transform="translate(0.195 -1)">
    <g id="Group_146" data-name="Group 146" transform="translate(4 1)">
      <g id="Rectangle_233" data-name="Rectangle 233" transform="translate(-0.195)" fill="none" stroke="#104877" stroke-width="1">
        <rect width="5" height="4" stroke="none"/>
        <rect x="0.5" y="0.5" width="4" height="3" fill="none"/>
      </g>
      <g id="Rectangle_234" data-name="Rectangle 234" transform="translate(-0.195 3)" fill="none" stroke="#104877" stroke-width="1">
        <rect width="5" height="4" stroke="none"/>
        <rect x="0.5" y="0.5" width="4" height="3" fill="none"/>
      </g>
      <g id="Rectangle_235" data-name="Rectangle 235" transform="translate(-0.195 6)" fill="none" stroke="#104877" stroke-width="1">
        <rect width="5" height="4" stroke="none"/>
        <rect x="0.5" y="0.5" width="4" height="3" fill="none"/>
      </g>
    </g>
    <g id="Group_147" data-name="Group 147" transform="translate(8 1)">
      <g id="Rectangle_233-2" data-name="Rectangle 233" transform="translate(-0.195)" fill="none" stroke="#104877" stroke-width="1">
        <rect width="5" height="4" stroke="none"/>
        <rect x="0.5" y="0.5" width="4" height="3" fill="none"/>
      </g>
      <g id="Rectangle_234-2" data-name="Rectangle 234" transform="translate(-0.195 3)" fill="none" stroke="#104877" stroke-width="1">
        <rect width="5" height="4" stroke="none"/>
        <rect x="0.5" y="0.5" width="4" height="3" fill="none"/>
      </g>
      <g id="Rectangle_235-2" data-name="Rectangle 235" transform="translate(-0.195 6)" fill="none" stroke="#104877" stroke-width="1">
        <rect width="5" height="4" stroke="none"/>
        <rect x="0.5" y="0.5" width="4" height="3" fill="none"/>
      </g>
    </g>
    <g id="Group_148" data-name="Group 148" transform="translate(0 1)">
      <g id="Rectangle_233-3" data-name="Rectangle 233" transform="translate(-0.195)" fill="none" stroke="#104877" stroke-width="1">
        <rect width="5" height="4" stroke="none"/>
        <rect x="0.5" y="0.5" width="4" height="3" fill="none"/>
      </g>
      <g id="Rectangle_234-3" data-name="Rectangle 234" transform="translate(-0.195 3)" fill="none" stroke="#104877" stroke-width="1">
        <rect width="5" height="4" stroke="none"/>
        <rect x="0.5" y="0.5" width="4" height="3" fill="none"/>
      </g>
      <g id="Rectangle_235-3" data-name="Rectangle 235" transform="translate(-0.195 6)" fill="none" stroke="#104877" stroke-width="1">
        <rect width="5" height="4" stroke="none"/>
        <rect x="0.5" y="0.5" width="4" height="3" fill="none"/>
      </g>
    </g>
  </g>
</svg>
