<svg xmlns="http://www.w3.org/2000/svg" width="13" height="11" viewBox="0 0 13 11">
  <g id="Group_206" data-name="Group 206" transform="translate(0.195)">
    <g id="Group_146" data-name="Group 146" transform="translate(4 1)">
      <g id="Rectangle_233" data-name="Rectangle 233" transform="translate(-0.195)" fill="none" stroke="#fff" stroke-width="1">
        <rect width="5" height="4" stroke="none"/>
        <rect x="0.5" y="0.5" width="4" height="3" fill="none"/>
      </g>
      <g id="Rectangle_234" data-name="Rectangle 234" transform="translate(-0.195 3)" fill="none" stroke="#fff" stroke-width="1">
        <rect width="5" height="4" stroke="none"/>
        <rect x="0.5" y="0.5" width="4" height="3" fill="none"/>
      </g>
      <g id="Rectangle_235" data-name="Rectangle 235" transform="translate(-0.195 6)" fill="none" stroke="#fff" stroke-width="1">
        <rect width="5" height="4" stroke="none"/>
        <rect x="0.5" y="0.5" width="4" height="3" fill="none"/>
      </g>
    </g>
    <g id="Group_147" data-name="Group 147" transform="translate(8 1)">
      <g id="Rectangle_233-2" data-name="Rectangle 233" transform="translate(-0.195)" fill="none" stroke="#fff" stroke-width="1">
        <rect width="5" height="4" stroke="none"/>
        <rect x="0.5" y="0.5" width="4" height="3" fill="none"/>
      </g>
      <g id="Rectangle_234-2" data-name="Rectangle 234" transform="translate(-0.195 3)" fill="none" stroke="#fff" stroke-width="1">
        <rect width="5" height="4" stroke="none"/>
        <rect x="0.5" y="0.5" width="4" height="3" fill="none"/>
      </g>
      <g id="Rectangle_235-2" data-name="Rectangle 235" transform="translate(-0.195 6)" fill="none" stroke="#fff" stroke-width="1">
        <rect width="5" height="4" stroke="none"/>
        <rect x="0.5" y="0.5" width="4" height="3" fill="none"/>
      </g>
    </g>
    <g id="Group_148" data-name="Group 148" transform="translate(0 1)">
      <g id="Rectangle_233-3" data-name="Rectangle 233" transform="translate(-0.195)" fill="none" stroke="#fff" stroke-width="1">
        <rect width="5" height="4" stroke="none"/>
        <rect x="0.5" y="0.5" width="4" height="3" fill="none"/>
      </g>
      <g id="Rectangle_234-3" data-name="Rectangle 234" transform="translate(-0.195 3)" fill="none" stroke="#fff" stroke-width="1">
        <rect width="5" height="4" stroke="none"/>
        <rect x="0.5" y="0.5" width="4" height="3" fill="none"/>
      </g>
      <g id="Rectangle_235-3" data-name="Rectangle 235" transform="translate(-0.195 6)" fill="none" stroke="#fff" stroke-width="1">
        <rect width="5" height="4" stroke="none"/>
        <rect x="0.5" y="0.5" width="4" height="3" fill="none"/>
      </g>
    </g>
    <g id="Rectangle_236" data-name="Rectangle 236" transform="translate(-0.195)" fill="none" stroke="#707070" stroke-width="1">
      <rect width="13" height="1" stroke="none"/>
      <rect x="0.5" y="0.5" width="12" fill="none"/>
    </g>
  </g>
</svg>
